# xmcd
#
# Track frame offsets:
#	150
#	12689
#	22596
#	31812
#	42923
#	53938
#	62784
#	73370
#	88445
#	101590
#	113088
#	133046
#	143397
#	152557
#	163713
#	175846
#	206003
#	216220
#	226246
#	236809
#
# Disc length: 3297 seconds
#
# Revision: 1
# Processed by: cddbd v1.5.2PL0 Copyright (c) Steve Scherf et al.
# Submitted via: audiograbber 1.83.01
#
DISCID=180cdf14
DTITLE=New Orleans Gumbo - CD3
DYEAR=2016
DGENRE=Blues
TTITLE0=Frankie Ford - Sea Cruise
TTITLE1=Little Richard - Good Golly. Miss Molly
TTITLE2=Fats Domino - Be My Guest
TTITLE3=Ernie K. Doe - Mother-ln-Law
TTITLE4=Lee Dorsey - Ya Ya
TTITLE5=Chris Kenner - I Like lt Like That
TTITLE6=Clarence 'Frogman' Henry - But I Do
TTITLE7=Mac Rebennack - Storm Warning
TTITLE8=Prolessor Longhair - Go To The Mardi Gras
TTITLE9=Joe Jones - You Talk Too Much
TTITLE10=Jessie Hill - Ooh Poo Pah Ooo (Parts 1 and 2)
TTITLE11=Aaron Neville - Over You
TTITLE12=Fats Domino - Walking To New Orleans
TTITLE13=Irma Thomas - Cry On
TTITLE14=Ernie K. Doe - Te-Ta-Te-Ta-Ta
TTITLE15=Diamond Joe - Moanin' And Screamin' (Parts 1 &2)
TTITLE16=The Showmen - lt Will Stand
TTITLE17=Lee Dorsey - Do-Re-Mi
TTITLE18=Barbara George - I Know (You Don't Love Me No More)
TTITLE19=Willie Harper - New Kind Of Love
EXTD=
EXTT0=
EXTT1=
EXTT2=
EXTT3=
EXTT4=
EXTT5=
EXTT6=
EXTT7=
EXTT8=
EXTT9=
EXTT10=
EXTT11=
EXTT12=
EXTT13=
EXTT14=
EXTT15=
EXTT16=
EXTT17=
EXTT18=
EXTT19=
PLAYORDER=
